<svg xmlns="http://www.w3.org/2000/svg" viewBox="0 0 512 512" width="512" height="512">
    <defs>
        <linearGradient id="bodyGrad" x1="0%" y1="0%" x2="100%" y2="100%">
            <stop offset="0%" stop-color="#0ea5e9" />
            <stop offset="100%" stop-color="#1e40af" />
        </linearGradient>
        <linearGradient id="hornGrad" x1="0%" y1="100%" x2="100%" y2="0%">
            <stop offset="0%" stop-color="#38bdf8" />
            <stop offset="100%" stop-color="#818cf8" />
        </linearGradient>
        <radialGradient id="sparkGrad" cx="50%" cy="50%" r="50%" fx="50%" fy="50%">
            <stop offset="0%" stop-color="#ffffff" stop-opacity="1" />
            <stop offset="40%" stop-color="#7dd3fc" stop-opacity="0.8" />
            <stop offset="100%" stop-color="#38bdf8" stop-opacity="0" />
        </radialGradient>
    </defs>
    <path d="M 150 340 C 130 200, 280 180, 360 260 C 390 290, 370 350, 320 350 C 240 350, 200 380, 150 340 Z" fill="url(#bodyGrad)" />
    <path d="M 345 250 L 440 120 L 365 270 Z" fill="url(#hornGrad)" />
    <circle cx="440" cy="120" r="24" fill="url(#sparkGrad)" />
    <circle cx="440" cy="120" r="8" fill="#ffffff" />
    <circle cx="340" cy="280" r="8" fill="#ffffff" />
    <path d="M 150 340 C 110 300, 70 320, 60 360 C 90 370, 120 360, 150 340 Z" fill="url(#bodyGrad)" opacity="0.9" />
    <path d="M 150 340 C 130 370, 90 410, 120 440 C 150 410, 160 370, 150 340 Z" fill="url(#bodyGrad)" opacity="0.75" />
</svg>
